<?xml version="1.0" encoding="UTF-8" standalone="no"?>
<!DOCTYPE svg PUBLIC "-//W3C//DTD SVG 1.1//EN"
 "http://www.w3.org/Graphics/SVG/1.1/DTD/svg11.dtd">
<!-- Generated by graphviz version 2.36.0 (20140111.2315)
 -->
<!-- Title: %3 Pages: 1 -->
<svg width="746pt" height="548pt"
 viewBox="0.00 0.00 746.00 548.00" xmlns="http://www.w3.org/2000/svg" xmlns:xlink="http://www.w3.org/1999/xlink">
<g id="graph0" class="graph" transform="scale(1 1) rotate(0) translate(4 544)">
<title>%3</title>
<polygon fill="white" stroke="none" points="-4,4 -4,-544 742,-544 742,4 -4,4"/>
<!-- Sciences Humaines -->
<g id="node1" class="node"><title>Sciences Humaines</title>
<ellipse fill="none" stroke="black" cx="382" cy="-522" rx="79.4147" ry="18"/>
<text text-anchor="middle" x="382" y="-518.3" font-family="Times,serif" font-size="14.00">Sciences Humaines</text>
</g>
<!-- PRATIQUE DE LABO 0 2 -->
<g id="node2" class="node"><title>PRATIQUE DE LABO 0 2</title>
<polygon fill="none" stroke="black" points="460,-468 304,-468 304,-432 460,-432 460,-468"/>
<text text-anchor="middle" x="382" y="-446.3" font-family="Times,serif" font-size="14.00">PRATIQUE DE LABO 2</text>
</g>
<!-- Sciences Humaines&#45;&gt;PRATIQUE DE LABO 0 2 -->
<g id="edge1" class="edge"><title>Sciences Humaines&#45;&gt;PRATIQUE DE LABO 0 2</title>
<path fill="none" stroke="black" d="M382,-503.697C382,-495.983 382,-486.712 382,-478.112"/>
<polygon fill="black" stroke="black" points="385.5,-478.104 382,-468.104 378.5,-478.104 385.5,-478.104"/>
</g>
<!-- CHIMIE 1 2 -->
<g id="node3" class="node"><title>CHIMIE 1 2</title>
<polygon fill="none" stroke="black" points="520,-180 444,-180 444,-144 520,-144 520,-180"/>
<text text-anchor="middle" x="482" y="-158.3" font-family="Times,serif" font-size="14.00">CHIMIE 1</text>
</g>
<!-- Sciences Humaines&#45;&gt;CHIMIE 1 2 -->
<g id="edge2" class="edge"><title>Sciences Humaines&#45;&gt;CHIMIE 1 2</title>
<path fill="none" stroke="black" d="M430.566,-507.64C451.937,-499.45 475.626,-486.823 491,-468 542.663,-404.744 542.325,-368.407 528,-288 521.698,-252.628 506.101,-214.147 494.813,-189.36"/>
<polygon fill="black" stroke="black" points="497.968,-187.845 490.578,-180.253 491.621,-190.796 497.968,-187.845"/>
</g>
<!-- PHYSIQUE 1 2 -->
<g id="node7" class="node"><title>PHYSIQUE 1 2</title>
<polygon fill="none" stroke="black" points="274,-180 180,-180 180,-144 274,-144 274,-180"/>
<text text-anchor="middle" x="227" y="-158.3" font-family="Times,serif" font-size="14.00">PHYSIQUE 1</text>
</g>
<!-- Sciences Humaines&#45;&gt;PHYSIQUE 1 2 -->
<g id="edge24" class="edge"><title>Sciences Humaines&#45;&gt;PHYSIQUE 1 2</title>
<path fill="none" stroke="black" d="M320.666,-510.495C252.532,-494.897 152,-458.425 152,-379 152,-379 152,-379 152,-305 152,-259.773 182.115,-214.846 204.179,-187.999"/>
<polygon fill="black" stroke="black" points="206.935,-190.161 210.726,-180.267 201.593,-185.637 206.935,-190.161"/>
</g>
<!-- GREC 0 2 -->
<g id="node9" class="node"><title>GREC 0 2</title>
<polygon fill="none" stroke="black" points="519.25,-324 456.75,-324 456.75,-288 519.25,-288 519.25,-324"/>
<text text-anchor="middle" x="488" y="-302.3" font-family="Times,serif" font-size="14.00">GREC 2</text>
</g>
<!-- Sciences Humaines&#45;&gt;GREC 0 2 -->
<g id="edge7" class="edge"><title>Sciences Humaines&#45;&gt;GREC 0 2</title>
<path fill="none" stroke="black" d="M421.657,-506.276C439.017,-497.767 457.919,-485.266 469,-468 495.199,-427.176 494.734,-368.348 491.632,-334.261"/>
<polygon fill="black" stroke="black" points="495.092,-333.695 490.563,-324.117 488.13,-334.429 495.092,-333.695"/>
</g>
<!-- MATHEMATIQUE 5 6 -->
<g id="node11" class="node"><title>MATHEMATIQUE 5 6</title>
<polygon fill="none" stroke="black" points="591.25,-36 452.75,-36 452.75,-0 591.25,-0 591.25,-36"/>
<text text-anchor="middle" x="522" y="-14.3" font-family="Times,serif" font-size="14.00">MATHEMATIQUE 1</text>
</g>
<!-- Sciences Humaines&#45;&gt;MATHEMATIQUE 5 6 -->
<g id="edge19" class="edge"><title>Sciences Humaines&#45;&gt;MATHEMATIQUE 5 6</title>
<path fill="none" stroke="black" d="M460.607,-518.885C554.776,-511.675 700,-483.6 700,-379 700,-379 700,-379 700,-161 700,-100.339 636.046,-61.3802 584.807,-39.9015"/>
<polygon fill="black" stroke="black" points="585.988,-36.6038 575.406,-36.093 583.36,-43.0917 585.988,-36.6038"/>
</g>
<!-- LATIN 0 4 -->
<g id="node13" class="node"><title>LATIN 0 4</title>
<polygon fill="none" stroke="black" points="292,-324 224,-324 224,-288 292,-288 292,-324"/>
<text text-anchor="middle" x="258" y="-302.3" font-family="Times,serif" font-size="14.00">LATIN 4</text>
</g>
<!-- Sciences Humaines&#45;&gt;LATIN 0 4 -->
<g id="edge15" class="edge"><title>Sciences Humaines&#45;&gt;LATIN 0 4</title>
<path fill="none" stroke="black" d="M344.054,-506.158C326.645,-497.51 307.207,-484.927 295,-468 266.088,-427.908 259.335,-368.826 258.009,-334.495"/>
<polygon fill="black" stroke="black" points="261.502,-334.182 257.748,-324.274 254.505,-334.36 261.502,-334.182"/>
</g>
<!-- Sciences -->
<g id="node4" class="node"><title>Sciences</title>
<ellipse fill="none" stroke="black" cx="390" cy="-378" rx="41.394" ry="18"/>
<text text-anchor="middle" x="390" y="-374.3" font-family="Times,serif" font-size="14.00">Sciences</text>
</g>
<!-- PRATIQUE DE LABO 0 2&#45;&gt;Sciences -->
<g id="edge29" class="edge"><title>PRATIQUE DE LABO 0 2&#45;&gt;Sciences</title>
<path fill="none" stroke="black" d="M383.978,-431.697C384.859,-423.983 385.919,-414.712 386.901,-406.112"/>
<polygon fill="black" stroke="black" points="390.387,-406.437 388.045,-396.104 383.432,-405.642 390.387,-406.437"/>
</g>
<!-- CHIMIE 1 2&#45;&gt;Sciences -->
<g id="edge3" class="edge"><title>CHIMIE 1 2&#45;&gt;Sciences</title>
<path fill="none" stroke="black" d="M474.687,-180.01C458.65,-217.313 420.303,-306.513 401.204,-350.938"/>
<polygon fill="black" stroke="black" points="397.953,-349.638 397.219,-360.208 404.384,-352.403 397.953,-349.638"/>
</g>
<!-- Latin Sciences -->
<g id="node10" class="node"><title>Latin Sciences</title>
<ellipse fill="none" stroke="black" cx="430" cy="-90" rx="62.0922" ry="18"/>
<text text-anchor="middle" x="430" y="-86.3" font-family="Times,serif" font-size="14.00">Latin Sciences</text>
</g>
<!-- CHIMIE 1 2&#45;&gt;Latin Sciences -->
<g id="edge31" class="edge"><title>CHIMIE 1 2&#45;&gt;Latin Sciences</title>
<path fill="none" stroke="black" d="M469.146,-143.697C462.975,-135.389 455.463,-125.277 448.676,-116.141"/>
<polygon fill="black" stroke="black" points="451.479,-114.045 442.706,-108.104 445.86,-118.219 451.479,-114.045"/>
</g>
<!-- SCIENCES SOCIALES 0 4 -->
<g id="node8" class="node"><title>SCIENCES SOCIALES 0 4</title>
<polygon fill="none" stroke="black" points="345.25,-36 186.75,-36 186.75,-0 345.25,-0 345.25,-36"/>
<text text-anchor="middle" x="266" y="-14.3" font-family="Times,serif" font-size="14.00">SCIENCES SOCIALES 4</text>
</g>
<!-- Sciences&#45;&gt;SCIENCES SOCIALES 0 4 -->
<g id="edge6" class="edge"><title>Sciences&#45;&gt;SCIENCES SOCIALES 0 4</title>
<path fill="none" stroke="black" d="M350.211,-373.046C312.159,-367.524 254.834,-354.479 215,-324 185.031,-301.069 183.833,-287.109 170,-252 152.257,-206.968 138.912,-189.285 156,-144 171.723,-102.332 208.361,-65.5447 235.045,-42.8547"/>
<polygon fill="black" stroke="black" points="237.513,-45.3552 242.973,-36.2757 233.042,-39.9685 237.513,-45.3552"/>
</g>
<!-- Sciences&#45;&gt;GREC 0 2 -->
<g id="edge8" class="edge"><title>Sciences&#45;&gt;GREC 0 2</title>
<path fill="none" stroke="black" d="M410.783,-362.155C423.84,-352.828 440.952,-340.606 455.748,-330.037"/>
<polygon fill="black" stroke="black" points="458.041,-332.701 464.144,-324.04 453.972,-327.004 458.041,-332.701"/>
</g>
<!-- HISTOIRE 2 3 -->
<g id="node12" class="node"><title>HISTOIRE 2 3</title>
<polygon fill="none" stroke="black" points="703.25,-36 614.75,-36 614.75,-0 703.25,-0 703.25,-36"/>
<text text-anchor="middle" x="659" y="-14.3" font-family="Times,serif" font-size="14.00">HISTOIRE 1</text>
</g>
<!-- Sciences&#45;&gt;HISTOIRE 2 3 -->
<g id="edge34" class="edge"><title>Sciences&#45;&gt;HISTOIRE 2 3</title>
<path fill="none" stroke="black" d="M430.427,-374.203C506.198,-366.532 662,-338.211 662,-235 662,-235 662,-235 662,-161 662,-120.987 660.795,-74.6463 659.912,-46.0762"/>
<polygon fill="black" stroke="black" points="663.409,-45.9304 659.593,-36.0468 656.413,-46.1532 663.409,-45.9304"/>
</g>
<!-- Sciences&#45;&gt;LATIN 0 4 -->
<g id="edge20" class="edge"><title>Sciences&#45;&gt;LATIN 0 4</title>
<path fill="none" stroke="black" d="M364.861,-363.669C346.273,-353.811 320.555,-340.173 299.008,-328.747"/>
<polygon fill="black" stroke="black" points="300.536,-325.595 290.061,-324.002 297.256,-331.779 300.536,-325.595"/>
</g>
<!-- Latin Grec -->
<g id="node5" class="node"><title>Latin Grec</title>
<ellipse fill="none" stroke="black" cx="351" cy="-234" rx="48.6179" ry="18"/>
<text text-anchor="middle" x="351" y="-230.3" font-family="Times,serif" font-size="14.00">Latin Grec</text>
</g>
<!-- Latin Grec&#45;&gt;PRATIQUE DE LABO 0 2 -->
<g id="edge33" class="edge"><title>Latin Grec&#45;&gt;PRATIQUE DE LABO 0 2</title>
<path fill="none" stroke="black" d="M345.326,-252.052C336.272,-282.111 321.294,-346.072 339,-396 342.662,-406.325 349.287,-416.104 356.257,-424.386"/>
<polygon fill="black" stroke="black" points="353.67,-426.744 362.961,-431.837 358.874,-422.062 353.67,-426.744"/>
</g>
<!-- Latin Grec&#45;&gt;CHIMIE 1 2 -->
<g id="edge26" class="edge"><title>Latin Grec&#45;&gt;CHIMIE 1 2</title>
<path fill="none" stroke="black" d="M377.51,-218.834C395.745,-209.09 420.319,-195.959 441.055,-184.879"/>
<polygon fill="black" stroke="black" points="442.804,-187.913 449.975,-180.113 439.505,-181.739 442.804,-187.913"/>
</g>
<!-- GEOGRAPHIE 1 2 -->
<g id="node6" class="node"><title>GEOGRAPHIE 1 2</title>
<polygon fill="none" stroke="black" points="131.25,-36 18.75,-36 18.75,-0 131.25,-0 131.25,-36"/>
<text text-anchor="middle" x="75" y="-14.3" font-family="Times,serif" font-size="14.00">GEOGRAPHIE 1</text>
</g>
<!-- Latin Grec&#45;&gt;GEOGRAPHIE 1 2 -->
<g id="edge4" class="edge"><title>Latin Grec&#45;&gt;GEOGRAPHIE 1 2</title>
<path fill="none" stroke="black" d="M340.834,-216.059C328.767,-196.927 307.204,-165.649 283,-144 233.455,-99.6843 165.973,-62.5128 121.483,-40.5125"/>
<polygon fill="black" stroke="black" points="122.874,-37.2969 112.353,-36.051 119.801,-43.5861 122.874,-37.2969"/>
</g>
<!-- Latin Grec&#45;&gt;PHYSIQUE 1 2 -->
<g id="edge5" class="edge"><title>Latin Grec&#45;&gt;PHYSIQUE 1 2</title>
<path fill="none" stroke="black" d="M325.608,-218.666C308.481,-208.997 285.547,-196.051 266.107,-185.076"/>
<polygon fill="black" stroke="black" points="267.599,-181.9 257.17,-180.032 264.158,-187.996 267.599,-181.9"/>
</g>
<!-- Latin Grec&#45;&gt;SCIENCES SOCIALES 0 4 -->
<g id="edge17" class="edge"><title>Latin Grec&#45;&gt;SCIENCES SOCIALES 0 4</title>
<path fill="none" stroke="black" d="M350.274,-216.001C348.348,-185.475 341.346,-120.076 316,-72 310.49,-61.5479 302.344,-51.6672 294.22,-43.3325"/>
<polygon fill="black" stroke="black" points="296.445,-40.614 286.841,-36.1407 291.559,-45.6269 296.445,-40.614"/>
</g>
<!-- Latin Grec&#45;&gt;MATHEMATIQUE 5 6 -->
<g id="edge23" class="edge"><title>Latin Grec&#45;&gt;MATHEMATIQUE 5 6</title>
<path fill="none" stroke="black" d="M356.689,-215.864C364.123,-195.959 378.973,-163.38 402,-144 437.821,-113.853 469.887,-142.986 501,-108 515.955,-91.1839 520.787,-65.7033 522.121,-46.3092"/>
<polygon fill="black" stroke="black" points="525.621,-46.393 522.545,-36.2545 518.627,-46.0983 525.621,-46.393"/>
</g>
<!-- Latin Grec&#45;&gt;HISTOIRE 2 3 -->
<g id="edge32" class="edge"><title>Latin Grec&#45;&gt;HISTOIRE 2 3</title>
<path fill="none" stroke="black" d="M366.727,-216.86C376.861,-206.409 390.286,-192.473 402,-180 416.859,-164.179 417.167,-156.374 435,-144 470.056,-119.675 486.224,-127.84 524,-108 561.227,-88.4477 601.108,-61.3062 627.793,-42.1504"/>
<polygon fill="black" stroke="black" points="629.923,-44.9292 635.973,-36.2314 625.82,-39.2582 629.923,-44.9292"/>
</g>
<!-- GEOGRAPHIE 1 2&#45;&gt;Sciences Humaines -->
<g id="edge22" class="edge"><title>GEOGRAPHIE 1 2&#45;&gt;Sciences Humaines</title>
<path fill="none" stroke="black" d="M58.7261,-36.2671C36.668,-61.554 0,-111.095 0,-161 0,-379 0,-379 0,-379 0,-434.94 39.4378,-442.06 89,-468 152.211,-501.083 232.427,-513.899 292.939,-518.685"/>
<polygon fill="black" stroke="black" points="293.008,-522.2 303.236,-519.438 293.518,-515.218 293.008,-522.2"/>
</g>
<!-- GEOGRAPHIE 1 2&#45;&gt;Sciences -->
<g id="edge11" class="edge"><title>GEOGRAPHIE 1 2&#45;&gt;Sciences</title>
<path fill="none" stroke="black" d="M67.5125,-36.1131C56.701,-62.4232 38,-114.634 38,-161 38,-235 38,-235 38,-235 38,-299.931 246.594,-349.042 342.629,-368.212"/>
<polygon fill="black" stroke="black" points="342.175,-371.69 352.663,-370.188 343.528,-364.822 342.175,-371.69"/>
</g>
<!-- PHYSIQUE 1 2&#45;&gt;Sciences -->
<g id="edge30" class="edge"><title>PHYSIQUE 1 2&#45;&gt;Sciences</title>
<path fill="none" stroke="black" d="M239.542,-180.145C252.738,-198.127 274.165,-227.173 293,-252 319.7,-287.194 351.134,-327.5 370.817,-352.606"/>
<polygon fill="black" stroke="black" points="368.091,-354.802 377.018,-360.509 373.598,-350.481 368.091,-354.802"/>
</g>
<!-- PHYSIQUE 1 2&#45;&gt;Latin Sciences -->
<g id="edge35" class="edge"><title>PHYSIQUE 1 2&#45;&gt;Latin Sciences</title>
<path fill="none" stroke="black" d="M274.083,-144.765C306.457,-133.601 349.317,-118.822 381.907,-107.584"/>
<polygon fill="black" stroke="black" points="383.355,-110.787 391.668,-104.218 381.073,-104.169 383.355,-110.787"/>
</g>
<!-- SCIENCES SOCIALES 0 4&#45;&gt;Sciences Humaines -->
<g id="edge16" class="edge"><title>SCIENCES SOCIALES 0 4&#45;&gt;Sciences Humaines</title>
<path fill="none" stroke="black" d="M206.144,-36.0392C150.451,-55.9927 76,-95.0081 76,-161 76,-379 76,-379 76,-379 76,-476.094 204.331,-506.985 294.78,-516.699"/>
<polygon fill="black" stroke="black" points="294.483,-520.187 304.783,-517.704 295.183,-513.222 294.483,-520.187"/>
</g>
<!-- GREC 0 2&#45;&gt;Latin Grec -->
<g id="edge12" class="edge"><title>GREC 0 2&#45;&gt;Latin Grec</title>
<path fill="none" stroke="black" d="M456.569,-288.941C436.063,-278.463 409.213,-264.744 387.723,-253.764"/>
<polygon fill="black" stroke="black" points="389.071,-250.522 378.573,-249.089 385.886,-256.755 389.071,-250.522"/>
</g>
<!-- Latin Sciences&#45;&gt;PRATIQUE DE LABO 0 2 -->
<g id="edge28" class="edge"><title>Latin Sciences&#45;&gt;PRATIQUE DE LABO 0 2</title>
<path fill="none" stroke="black" d="M475.502,-102.339C499.965,-110.442 529.104,-123.6 549,-144 578.91,-174.667 586,-190.162 586,-233 586,-307 586,-307 586,-307 586,-370.972 517.59,-408.472 460,-428.706"/>
<polygon fill="black" stroke="black" points="458.844,-425.402 450.497,-431.927 461.091,-432.032 458.844,-425.402"/>
</g>
<!-- Latin Sciences&#45;&gt;GEOGRAPHIE 1 2 -->
<g id="edge25" class="edge"><title>Latin Sciences&#45;&gt;GEOGRAPHIE 1 2</title>
<path fill="none" stroke="black" d="M379.89,-79.1192C317.407,-66.7986 210.412,-45.7009 141.222,-32.0579"/>
<polygon fill="black" stroke="black" points="141.787,-28.6018 131.298,-30.1011 140.432,-35.4696 141.787,-28.6018"/>
</g>
<!-- Latin Sciences&#45;&gt;SCIENCES SOCIALES 0 4 -->
<g id="edge14" class="edge"><title>Latin Sciences&#45;&gt;SCIENCES SOCIALES 0 4</title>
<path fill="none" stroke="black" d="M396.416,-74.6655C373.047,-64.6908 341.504,-51.2273 315.293,-40.0397"/>
<polygon fill="black" stroke="black" points="316.474,-36.7383 305.903,-36.0316 313.726,-43.1764 316.474,-36.7383"/>
</g>
<!-- Latin Sciences&#45;&gt;GREC 0 2 -->
<g id="edge27" class="edge"><title>Latin Sciences&#45;&gt;GREC 0 2</title>
<path fill="none" stroke="black" d="M473.701,-102.888C494.287,-110.923 516.929,-123.846 529,-144 554.739,-186.975 526.685,-245.739 505.98,-279.09"/>
<polygon fill="black" stroke="black" points="502.851,-277.485 500.385,-287.789 508.738,-281.271 502.851,-277.485"/>
</g>
<!-- Latin Sciences&#45;&gt;MATHEMATIQUE 5 6 -->
<g id="edge9" class="edge"><title>Latin Sciences&#45;&gt;MATHEMATIQUE 5 6</title>
<path fill="none" stroke="black" d="M451.338,-72.7646C463.182,-63.7531 478.122,-52.3852 491.211,-42.4261"/>
<polygon fill="black" stroke="black" points="493.655,-44.9646 499.494,-36.1239 489.417,-39.3938 493.655,-44.9646"/>
</g>
<!-- Latin Sciences&#45;&gt;HISTOIRE 2 3 -->
<g id="edge10" class="edge"><title>Latin Sciences&#45;&gt;HISTOIRE 2 3</title>
<path fill="none" stroke="black" d="M471.205,-76.4046C508.559,-64.9863 563.868,-48.0797 604.796,-35.5691"/>
<polygon fill="black" stroke="black" points="606.068,-38.8401 614.608,-32.5696 604.022,-32.1458 606.068,-38.8401"/>
</g>
<!-- MATHEMATIQUE 5 6&#45;&gt;Sciences -->
<g id="edge13" class="edge"><title>MATHEMATIQUE 5 6&#45;&gt;Sciences</title>
<path fill="none" stroke="black" d="M529.149,-36.0238C549.175,-86.7056 599.826,-238.391 528,-324 505.918,-350.32 469.195,-363.606 439.181,-370.292"/>
<polygon fill="black" stroke="black" points="438.386,-366.882 429.29,-372.316 439.789,-373.74 438.386,-366.882"/>
</g>
<!-- HISTOIRE 2 3&#45;&gt;Sciences Humaines -->
<g id="edge18" class="edge"><title>HISTOIRE 2 3&#45;&gt;Sciences Humaines</title>
<path fill="none" stroke="black" d="M676.142,-36.1063C699.376,-61.1976 738,-110.502 738,-161 738,-379 738,-379 738,-379 738,-425.499 721.488,-441.907 683,-468 648.324,-491.509 541.9,-506.181 465.435,-513.974"/>
<polygon fill="black" stroke="black" points="464.93,-510.507 455.327,-514.982 465.625,-517.472 464.93,-510.507"/>
</g>
<!-- LATIN 0 4&#45;&gt;Latin Grec -->
<g id="edge21" class="edge"><title>LATIN 0 4&#45;&gt;Latin Grec</title>
<path fill="none" stroke="black" d="M280.989,-287.697C293.432,-278.331 308.923,-266.671 322.167,-256.702"/>
<polygon fill="black" stroke="black" points="324.607,-259.246 330.492,-250.436 320.397,-253.654 324.607,-259.246"/>
</g>
<!-- LATIN 0 4&#45;&gt;Latin Sciences -->
<g id="edge36" class="edge"><title>LATIN 0 4&#45;&gt;Latin Sciences</title>
<path fill="none" stroke="black" d="M236.313,-287.983C199.594,-257.148 132.733,-190.891 171,-144 194.393,-115.335 291.046,-101.755 359.406,-95.6276"/>
<polygon fill="black" stroke="black" points="360.033,-99.0867 369.696,-94.742 359.433,-92.1125 360.033,-99.0867"/>
</g>
</g>
</svg>
