<?xml version="1.0" encoding="UTF-8" standalone="no"?>
<!-- Generated by graphviz version 2.36.0 (20140111.2315)
 -->

<!-- Title: %3 Pages: 1 -->

<svg
   xmlns:dc="http://purl.org/dc/elements/1.1/"
   xmlns:cc="http://creativecommons.org/ns#"
   xmlns:rdf="http://www.w3.org/1999/02/22-rdf-syntax-ns#"
   xmlns:svg="http://www.w3.org/2000/svg"
   xmlns="http://www.w3.org/2000/svg"
   xmlns:sodipodi="http://sodipodi.sourceforge.net/DTD/sodipodi-0.dtd"
   xmlns:inkscape="http://www.inkscape.org/namespaces/inkscape"
   width="1964pt"
   height="308pt"
   viewBox="0.00 0.00 1963.73 308.00"
   id="svg2"
   version="1.1"
   inkscape:version="0.48.4 r9939"
   sodipodi:docname="yolo.svg">
  <metadata
     id="metadata320">
    <rdf:RDF>
      <cc:Work
         rdf:about="">
        <dc:format>image/svg+xml</dc:format>
        <dc:type
           rdf:resource="http://purl.org/dc/dcmitype/StillImage" />
      </cc:Work>
    </rdf:RDF>
  </metadata>
  <defs
     id="defs318" />
  <sodipodi:namedview
     pagecolor="#ffffff"
     bordercolor="#666666"
     borderopacity="1"
     objecttolerance="10"
     gridtolerance="10"
     guidetolerance="10"
     inkscape:pageopacity="0"
     inkscape:pageshadow="2"
     inkscape:window-width="1920"
     inkscape:window-height="1060"
     id="namedview316"
     showgrid="false"
     inkscape:zoom="0.63543788"
     inkscape:cx="1176.926"
     inkscape:cy="174.34535"
     inkscape:window-x="-2"
     inkscape:window-y="-3"
     inkscape:window-maximized="1"
     inkscape:current-layer="svg2" />
  <g
     id="graph0"
     class="graph"
     transform="translate(12.812821,365.68974)">
    <title
       id="title5">%3</title>
    <polygon
       points="-4,-304 1959.73,-304 1959.73,4 -4,4 -4,4 "
       id="polygon7"
       style="fill:#ffffff;stroke:none" />
    <!-- Sciences -->
    <g
       id="node1"
       class="node">
      <title
         id="title10">Sciences</title>
      <ellipse
         cx="1047.73"
         cy="-282"
         rx="41.394001"
         ry="18"
         id="ellipse12"
         d="m 1089.124,-282 c 0,9.94113 -18.5327,18 -41.394,18 -22.8613,0 -41.394,-8.05887 -41.394,-18 0,-9.94113 18.5327,-18 41.394,-18 22.8613,0 41.394,8.05887 41.394,18 z"
         sodipodi:cx="1047.73"
         sodipodi:cy="-282"
         sodipodi:rx="41.394001"
         sodipodi:ry="18"
         style="fill:none;stroke:#000000" />
      <text
         x="1047.73"
         y="-278.29999"
         font-size="14.00"
         id="text14"
         style="font-size:14px;text-anchor:middle;font-family:'Times,serif'">Sciences</text>
    </g>
    <!-- Sciences Humaines -->
    <g
       id="node2"
       class="node">
      <title
         id="title17">Sciences Humaines</title>
      <ellipse
         cx="448.728"
         cy="-194"
         rx="79.414703"
         ry="18"
         id="ellipse19"
         d="m 528.1427,-194 c 0,9.94113 -35.55517,18 -79.4147,18 -43.85953,0 -79.41471,-8.05887 -79.41471,-18 0,-9.94113 35.55518,-18 79.41471,-18 43.85953,0 79.4147,8.05887 79.4147,18 z"
         sodipodi:cx="448.728"
         sodipodi:cy="-194"
         sodipodi:rx="79.414703"
         sodipodi:ry="18"
         style="fill:none;stroke:#000000" />
      <text
         x="448.728"
         y="-190.3"
         font-size="14.00"
         id="text21"
         style="font-size:14px;text-anchor:middle;font-family:'Times,serif'">Sciences Humaines</text>
    </g>
    <!-- Sciences&#45;&gt;Sciences Humaines -->
    <g
       id="edge1"
       class="edge">
      <title
         id="title24">Sciences-&gt;Sciences Humaines</title>
      <path
         d="m 1006.38,-281.008 c -175.325,0.166 -849.736,2.895 -880.652,35.008 -34.187,35.509 126.62,46.311 233.617,49.586"
         id="path26"
         inkscape:connector-curvature="0"
         style="fill:none;stroke:#000000" />
      <polygon
         points="369.523,-196.12 359.426,-192.91 359.629,-199.907 359.629,-199.907 "
         id="polygon28"
         style="fill:#000000;stroke:#000000" />
      <text
         x="198.228"
         y="-234.3"
         font-size="14.00"
         id="text30"
         style="font-size:14px;text-anchor:middle;font-family:'Times,serif'">PRATIQUE DE LABO -2</text>
    </g>
    <!-- Sciences&#45;&gt;Sciences Humaines -->
    <g
       id="edge2"
       class="edge">
      <title
         id="title33">Sciences-&gt;Sciences Humaines</title>
      <path
         d="m 1006.32,-280.641 c -154.244,1.535 -687.835,8.708 -712.592,34.641 -26.72,27.988 19.199,40.629 67.849,46.331"
         id="path35"
         inkscape:connector-curvature="0"
         style="fill:none;stroke:#000000" />
      <polygon
         points="371.648,-198.586 361.331,-196.175 362.08,-203.135 362.08,-203.135 "
         id="polygon37"
         style="fill:#000000;stroke:#000000" />
      <text
         x="369.228"
         y="-234.3"
         font-size="14.00"
         id="text39"
         style="font-size:14px;text-anchor:middle;font-family:'Times,serif'">SCIENCES SOCIALES +4</text>
    </g>
    <!-- Sciences&#45;&gt;Sciences Humaines -->
    <g
       id="edge3"
       class="edge">
      <title
         id="title42">Sciences-&gt;Sciences Humaines</title>
      <path
         d="m 1006.47,-281.073 c -125.34,0.128 -495.719,3.226 -538.742,35.073 -7.725,5.718 -12.311,14.944 -15.033,23.987"
         id="path44"
         inkscape:connector-curvature="0"
         style="fill:none;stroke:#000000" />
      <polygon
         points="450.346,-212.077 449.241,-222.614 456.053,-221.003 456.053,-221.003 "
         id="polygon46"
         style="fill:#000000;stroke:#000000" />
      <text
         x="508.728"
         y="-234.3"
         font-size="14.00"
         id="text48"
         style="font-size:14px;text-anchor:middle;font-family:'Times,serif'">PHYSIQUE -1</text>
    </g>
    <!-- Sciences&#45;&gt;Sciences Humaines -->
    <g
       id="edge4"
       class="edge">
      <title
         id="title51">Sciences-&gt;Sciences Humaines</title>
      <path
         d="m 1006.37,-280.739 c -100.341,1.079 -354.245,6.593 -433.642,34.739 -11.737,4.161 -11.902,10.353 -23,16 -13.772,7.007 -29.269,13.159 -43.913,18.27"
         id="path53"
         inkscape:connector-curvature="0"
         style="fill:none;stroke:#000000" />
      <polygon
         points="496.342,-208.523 504.692,-215.045 506.937,-208.414 506.937,-208.414 "
         id="polygon55"
         style="fill:#000000;stroke:#000000" />
      <text
         x="613.22803"
         y="-234.3"
         font-size="14.00"
         id="text57"
         style="font-size:14px;text-anchor:middle;font-family:'Times,serif'">HISTOIRE +1</text>
    </g>
    <!-- Sciences&#45;&gt;Sciences Humaines -->
    <g
       id="edge5"
       class="edge">
      <title
         id="title60">Sciences-&gt;Sciences Humaines</title>
      <path
         d="m 1006.59,-279.748 c -83.532,2.969 -270.173,11.897 -329.862,33.748 -11.694,4.281 -11.476,11.284 -23,16 -37.73,15.441 -82.056,24.069 -119.821,28.892"
         id="path62"
         inkscape:connector-curvature="0"
         style="fill:none;stroke:#000000" />
      <polygon
         points="523.949,-199.905 533.457,-204.58 534.297,-197.63 534.297,-197.63 "
         id="polygon64"
         style="fill:#000000;stroke:#000000" />
      <text
         x="708.72803"
         y="-234.3"
         font-size="14.00"
         id="text66"
         style="font-size:14px;text-anchor:middle;font-family:'Times,serif'">CHIMIE -1</text>
    </g>
    <!-- Sciences&#45;&gt;Sciences Humaines -->
    <g
       id="edge6"
       class="edge">
      <title
         id="title69">Sciences-&gt;Sciences Humaines</title>
      <path
         d="m 1007.22,-278.415 c -67.51,4.709 -199.932,15.759 -243.492,32.415 -11.632,4.447 -11.362,11.572 -23,16 -36.633,13.937 -134.349,23.746 -206.707,29.365"
         id="path71"
         inkscape:connector-curvature="0"
         style="fill:none;stroke:#000000" />
      <polygon
         points="523.988,-199.87 533.693,-204.12 534.225,-197.14 534.225,-197.14 "
         id="polygon73"
         style="fill:#000000;stroke:#000000" />
      <text
         x="827.22803"
         y="-234.3"
         font-size="14.00"
         id="text75"
         style="font-size:14px;text-anchor:middle;font-family:'Times,serif'">MATHEMATIQUE -1</text>
    </g>
    <!-- Latin Grec -->
    <g
       id="node3"
       class="node">
      <title
         id="title78">Latin Grec</title>
      <ellipse
         cx="962.72803"
         cy="-106"
         rx="48.617901"
         ry="18"
         id="ellipse80"
         d="m 1011.3459,-106 c 0,9.941125 -21.76695,18 -48.61787,18 -26.85093,0 -48.6179,-8.058875 -48.6179,-18 0,-9.94113 21.76697,-18 48.6179,-18 26.85092,0 48.61787,8.05887 48.61787,18 z"
         sodipodi:cx="962.72803"
         sodipodi:cy="-106"
         sodipodi:rx="48.617901"
         sodipodi:ry="18"
         style="fill:none;stroke:#000000" />
      <text
         x="962.72803"
         y="-102.3"
         font-size="14.00"
         id="text82"
         style="font-size:14px;text-anchor:middle;font-family:'Times,serif'">Latin Grec</text>
    </g>
    <!-- Sciences&#45;&gt;Latin Grec -->
    <g
       id="edge7"
       class="edge">
      <title
         id="title85">Sciences-&gt;Latin Grec</title>
      <path
         d="m 1011.05,-273.663 c -26.278,5.88 -62.192,15.206 -92.322,27.663 -13.246,5.476 -14.438,11.363 -28,16 -27.18,9.292 -109.157,-3.679 -128,18 -10.497,12.076 -10.845,24.236 0,36 33.397,36.228 187.602,-18.228 221,18 6.787,7.363 4.524,17.221 -0.527,26.307"
         id="path87"
         inkscape:connector-curvature="0"
         style="fill:none;stroke:#000000" />
      <polygon
         points="977.708,-123.325 980.27,-133.606 986.122,-129.764 986.122,-129.764 "
         id="polygon89"
         style="fill:#000000;stroke:#000000" />
      <text
         x="835.22803"
         y="-190.3"
         font-size="14.00"
         id="text91"
         style="font-size:14px;text-anchor:middle;font-family:'Times,serif'">PRATIQUE DE LABO -2</text>
    </g>
    <!-- Sciences&#45;&gt;Latin Grec -->
    <g
       id="edge8"
       class="edge">
      <title
         id="title94">Sciences-&gt;Latin Grec</title>
      <path
         d="m 1016.41,-269.824 c -24.69,10.669 -57.417,29.376 -72.682,57.824 -7.566,14.098 -9.459,23.095 0,36 15.704,21.428 41.295,-3.428 57.002,18 7.05,9.628 1.37,20.218 -7.543,29.242"
         id="path96"
         inkscape:connector-curvature="0"
         style="fill:none;stroke:#000000" />
      <polygon
         points="985.524,-121.906 990.645,-131.18 995.311,-125.962 995.311,-125.962 "
         id="polygon98"
         style="fill:#000000;stroke:#000000" />
      <text
         x="984.72803"
         y="-190.3"
         font-size="14.00"
         id="text100"
         style="font-size:14px;text-anchor:middle;font-family:'Times,serif'">PHYSIQUE -1</text>
    </g>
    <!-- Sciences&#45;&gt;Latin Grec -->
    <g
       id="edge9"
       class="edge">
      <title
         id="title103">Sciences-&gt;Latin Grec</title>
      <path
         d="m 1048.1,-263.857 c -0.25,28.117 -4.38,84.623 -31.37,121.857 -4.38,6.032 -10.13,11.297 -16.26,15.784"
         id="path105"
         inkscape:connector-curvature="0"
         style="fill:none;stroke:#000000" />
      <polygon
         points="991.984,-120.579 998.377,-129.028 1002.25,-123.197 1002.25,-123.197 "
         id="polygon107"
         style="fill:#000000;stroke:#000000" />
      <text
         x="1094.73"
         y="-190.3"
         font-size="14.00"
         id="text109"
         style="font-size:14px;text-anchor:middle;font-family:'Times,serif'">GEOGRAPHIE -1</text>
    </g>
    <!-- Sciences&#45;&gt;Latin Grec -->
    <g
       id="edge10"
       class="edge">
      <title
         id="title112">Sciences-&gt;Latin Grec</title>
      <path
         d="m 1075.95,-268.809 c 38.54,18.411 100.01,55.174 73.78,92.809 -28.94,41.528 -85.86,58.126 -129.34,64.725"
         id="path114"
         inkscape:connector-curvature="0"
         style="fill:none;stroke:#000000" />
      <polygon
         points="1010.21,-109.872 1019.64,-114.705 1020.6,-107.77 1020.6,-107.77 "
         id="polygon116"
         style="fill:#000000;stroke:#000000" />
      <text
         x="1184.23"
         y="-190.3"
         font-size="14.00"
         id="text118"
         style="font-size:14px;text-anchor:middle;font-family:'Times,serif'">GREC +2</text>
    </g>
    <!-- Sciences&#45;&gt;Latin Grec -->
    <g
       id="edge11"
       class="edge">
      <title
         id="title121">Sciences-&gt;Latin Grec</title>
      <path
         d="m 1084.97,-274.058 c 59.55,12.861 166.09,44.11 130.76,98.058 -21.59,32.966 -129.68,52.899 -197.4,62.351"
         id="path123"
         inkscape:connector-curvature="0"
         style="fill:none;stroke:#000000" />
      <polygon
         points="1008.24,-112.275 1017.67,-117.092 1018.62,-110.155 1018.62,-110.155 "
         id="polygon125"
         style="fill:#000000;stroke:#000000" />
      <text
         x="1255.73"
         y="-190.3"
         font-size="14.00"
         id="text127"
         style="font-size:14px;text-anchor:middle;font-family:'Times,serif'">CHIMIE -1</text>
    </g>
    <!-- Sciences&#45;&gt;Latin Grec -->
    <g
       id="edge12"
       class="edge">
      <title
         id="title130">Sciences-&gt;Latin Grec</title>
      <path
         d="m 1088.49,-278.62 c 82.4,6.391 256.6,28.809 203.24,102.62 -31.26,43.232 -185.66,59.906 -271.38,65.907"
         id="path132"
         inkscape:connector-curvature="0"
         style="fill:none;stroke:#000000" />
      <polygon
         points="1010.25,-109.414 1019.99,-113.577 1020.46,-106.593 1020.46,-106.593 "
         id="polygon134"
         style="fill:#000000;stroke:#000000" />
      <text
         x="1331.73"
         y="-190.3"
         font-size="14.00"
         id="text136"
         style="font-size:14px;text-anchor:middle;font-family:'Times,serif'">LATIN +4</text>
    </g>
    <!-- Sciences&#45;&gt;Latin Grec -->
    <g
       id="edge13"
       class="edge">
      <title
         id="title139">Sciences-&gt;Latin Grec</title>
      <path
         d="m 1089.19,-281.697 c 100.87,-0.22 345.85,8.917 276.54,105.697 -39.26,54.816 -242.19,66.273 -344.25,68.537"
         id="path141"
         inkscape:connector-curvature="0"
         style="fill:none;stroke:#000000" />
      <polygon
         points="1011.34,-107.261 1021.27,-110.959 1021.4,-103.961 1021.4,-103.961 "
         id="polygon143"
         style="fill:#000000;stroke:#000000" />
      <text
         x="1442.23"
         y="-190.3"
         font-size="14.00"
         id="text145"
         style="font-size:14px;text-anchor:middle;font-family:'Times,serif'">MATHEMATIQUE -1</text>
    </g>
    <!-- Latin Sciences -->
    <g
       id="node4"
       class="node">
      <title
         id="title148">Latin Sciences</title>
      <ellipse
         cx="796.72803"
         cy="-18"
         rx="62.092201"
         ry="18"
         id="ellipse150"
         d="m 858.82023,-18 c 0,9.9411255 -27.79963,18 -62.0922,18 -34.29258,0 -62.0922,-8.0588745 -62.0922,-18 0,-9.941125 27.79962,-18 62.0922,-18 34.29257,0 62.0922,8.058875 62.0922,18 z"
         sodipodi:cx="796.72803"
         sodipodi:cy="-18"
         sodipodi:rx="62.092201"
         sodipodi:ry="18"
         style="fill:none;stroke:#000000" />
      <text
         x="796.72803"
         y="-14.3"
         font-size="14.00"
         id="text152"
         style="font-size:14px;text-anchor:middle;font-family:'Times,serif'">Latin Sciences</text>
    </g>
    <!-- Sciences&#45;&gt;Latin Sciences -->
    <g
       id="edge14"
       class="edge">
      <title
         id="title155">Sciences-&gt;Latin Sciences</title>
      <path
         d="m 1088.39,-278.446 c 61.93,4.299 183.48,14.335 285.34,32.446 66.93,11.901 177.55,16.197 136,70 -78.45,101.5743 -478.96,140.6924 -642.901,152.605"
         id="path157"
         inkscape:connector-curvature="0"
         style="fill:none;stroke:#000000" />
      <polygon
         points="856.848,-22.6822 866.573,-26.8857 867.072,-19.9035 867.072,-19.9035 "
         id="polygon159"
         style="fill:#000000;stroke:#000000" />
      <text
         x="1562.23"
         y="-146.3"
         font-size="14.00"
         id="text161"
         style="font-size:14px;text-anchor:middle;font-family:'Times,serif'">PRATIQUE DE LABO -2</text>
    </g>
    <!-- Sciences&#45;&gt;Latin Sciences -->
    <g
       id="edge15"
       class="edge">
      <title
         id="title164">Sciences-&gt;Latin Sciences</title>
      <path
         d="m 1089.05,-280.783 c 71.51,1.151 222.6,7.006 346.68,34.783 42.94,9.614 52.52,16.723 93,34 53.29,22.749 146.3,24.829 110,70 -69.85,86.9162 -135.73,31.813 -245,54 -81.07,16.4608 -101.02,22.9464 -183,34 -120.09,16.1913 -260.851,26.2044 -343.437,31.1754"
         id="path166"
         inkscape:connector-curvature="0"
         style="fill:none;stroke:#000000" />
      <polygon
         points="857.268,-22.2288 867.043,-26.316 867.458,-19.3283 867.458,-19.3283 "
         id="polygon168"
         style="fill:#000000;stroke:#000000" />
      <text
         x="1709.23"
         y="-146.3"
         font-size="14.00"
         id="text170"
         style="font-size:14px;text-anchor:middle;font-family:'Times,serif'">MATHEMATIQUE -1</text>
    </g>
    <!-- Sciences&#45;&gt;Latin Sciences -->
    <g
       id="edge16"
       class="edge">
      <title
         id="title173">Sciences-&gt;Latin Sciences</title>
      <path
         d="m 1089.06,-280.14 c 166.82,4.226 777.46,27.343 687.67,138.14 -57.26,70.6563 -692.65,108.6772 -908.635,119.6291"
         id="path175"
         inkscape:connector-curvature="0"
         style="fill:none;stroke:#000000" />
      <polygon
         points="857.825,-21.8546 867.637,-25.8524 867.988,-18.8612 867.988,-18.8612 "
         id="polygon177"
         style="fill:#000000;stroke:#000000" />
      <text
         x="1813.73"
         y="-146.3"
         font-size="14.00"
         id="text179"
         style="font-size:14px;text-anchor:middle;font-family:'Times,serif'">LATIN +4</text>
    </g>
    <!-- Sciences&#45;&gt;Latin Sciences -->
    <g
       id="edge17"
       class="edge">
      <title
         id="title182">Sciences-&gt;Latin Sciences</title>
      <path
         d="m 1089.03,-281.044 c 175.95,0.595 849.94,11.167 758.7,139.044 -42.86,60.0662 -85.09,37.476 -157,54 -156.16,35.8798 -639.26,58.6728 -822.519,66.2251"
         id="path184"
         inkscape:connector-curvature="0"
         style="fill:none;stroke:#000000" />
      <polygon
         points="858.143,-21.3629 867.992,-25.2689 868.278,-18.2748 868.278,-18.2748 "
         id="polygon186"
         style="fill:#000000;stroke:#000000" />
      <text
         x="1904.73"
         y="-146.3"
         font-size="14.00"
         id="text188"
         style="font-size:14px;text-anchor:middle;font-family:'Times,serif'">GEOGRAPHIE -1</text>
    </g>
    <!-- Sciences Humaines&#45;&gt;Latin Grec -->
    <g
       id="edge18"
       class="edge">
      <title
         id="title191">Sciences Humaines-&gt;Latin Grec</title>
      <path
         d="m 443.702,-175.633 c -2.049,11.068 -2.286,24.917 6.026,33.633 20.596,21.598 238.224,15.967 268,18 64.136,4.379 137.71,9.497 187.357,12.964"
         id="path193"
         inkscape:connector-curvature="0"
         style="fill:none;stroke:#000000" />
      <polygon
         points="915.304,-110.322 905.084,-107.527 905.572,-114.51 905.572,-114.51 "
         id="polygon195"
         style="fill:#000000;stroke:#000000" />
      <text
         x="523.72803"
         y="-146.3"
         font-size="14.00"
         id="text197"
         style="font-size:14px;text-anchor:middle;font-family:'Times,serif'">SCIENCES SOCIALES -4</text>
    </g>
    <!-- Sciences Humaines&#45;&gt;Latin Grec -->
    <g
       id="edge19"
       class="edge">
      <title
         id="title200">Sciences Humaines-&gt;Latin Grec</title>
      <path
         d="m 513.156,-183.369 c 26.893,5.409 57.995,13.524 84.572,25.369 11.373,5.069 11.323,11.673 23,16 26.001,9.636 194.477,23.726 284.872,30.725"
         id="path202"
         inkscape:connector-curvature="0"
         style="fill:none;stroke:#000000" />
      <polygon
         points="915.691,-110.498 905.452,-107.776 905.99,-114.755 905.99,-114.755 "
         id="polygon204"
         style="fill:#000000;stroke:#000000" />
      <text
         x="659.22803"
         y="-146.3"
         font-size="14.00"
         id="text206"
         style="font-size:14px;text-anchor:middle;font-family:'Times,serif'">HISTOIRE -1</text>
    </g>
    <!-- Sciences Humaines&#45;&gt;Latin Grec -->
    <g
       id="edge20"
       class="edge">
      <title
         id="title209">Sciences Humaines-&gt;Latin Grec</title>
      <path
         d="m 527.375,-191.28 c 50.224,3.335 115.894,11.924 170.353,33.28 11.592,4.546 11.416,11.431 23,16 59.665,23.535 133.198,31.481 183.447,34.041"
         id="path211"
         inkscape:connector-curvature="0"
         style="fill:none;stroke:#000000" />
      <polygon
         points="914.216,-107.503 904.068,-104.46 904.385,-111.453 904.385,-111.453 "
         id="polygon213"
         style="fill:#000000;stroke:#000000" />
      <text
         x="750.72803"
         y="-146.3"
         font-size="14.00"
         id="text215"
         style="font-size:14px;text-anchor:middle;font-family:'Times,serif'">LATIN +4</text>
    </g>
    <!-- Sciences Humaines&#45;&gt;Latin Grec -->
    <g
       id="edge21"
       class="edge">
      <title
         id="title218">Sciences Humaines-&gt;Latin Grec</title>
      <path
         d="m 525.511,-189.331 c 83.161,4.754 209.999,14.496 255.217,31.331 11.669,4.345 11.59,11.011 23,16 32.69,14.295 71.8,23.003 103.051,28.157"
         id="path220"
         inkscape:connector-curvature="0"
         style="fill:none;stroke:#000000" />
      <polygon
         points="917.056,-112.228 906.633,-110.323 907.72,-117.238 907.72,-117.238 "
         id="polygon222"
         style="fill:#000000;stroke:#000000" />
      <text
         x="854.72803"
         y="-146.3"
         font-size="14.00"
         id="text224"
         style="font-size:14px;text-anchor:middle;font-family:'Times,serif'">GEOGRAPHIE -1</text>
    </g>
    <!-- Sciences Humaines&#45;&gt;Latin Grec -->
    <g
       id="edge22"
       class="edge">
      <title
         id="title227">Sciences Humaines-&gt;Latin Grec</title>
      <path
         d="m 524.69,-188.456 c 125.437,7.683 363.837,23.12 381.038,30.456 7.737,3.3 21.778,15.827 33.988,27.638"
         id="path229"
         inkscape:connector-curvature="0"
         style="fill:none;stroke:#000000" />
      <polygon
         points="947.009,-123.189 937.425,-127.706 942.334,-132.696 942.334,-132.696 "
         id="polygon231"
         style="fill:#000000;stroke:#000000" />
      <text
         x="954.22803"
         y="-146.3"
         font-size="14.00"
         id="text233"
         style="font-size:14px;text-anchor:middle;font-family:'Times,serif'">GREC +2</text>
    </g>
    <!-- Sciences Humaines&#45;&gt;Latin Sciences -->
    <g
       id="edge23"
       class="edge">
      <title
         id="title236">Sciences Humaines-&gt;Latin Sciences</title>
      <path
         d="m 369.661,-191.631 c -73.06,2.761 -184.152,10.769 -277.9335,33.631 -39.5302,9.637 -62.1891,0.308 -84.99995,34 -8.97007,13.249 -8.97007,22.751 0,36 22.81085,33.6923 45.24935,25.3171 84.99995,34 118.8635,25.9637 477.4725,32.707 632.4075,34.426"
         id="path238"
         inkscape:connector-curvature="0"
         style="fill:none;stroke:#000000" />
      <polygon
         points="734.487,-19.4633 724.45,-16.0706 724.525,-23.0702 724.525,-23.0702 "
         id="polygon240"
         style="fill:#000000;stroke:#000000" />
      <text
         x="45.227501"
         y="-102.3"
         font-size="14.00"
         id="text242"
         style="font-size:14px;text-anchor:middle;font-family:'Times,serif'">HISTOIRE -1</text>
    </g>
    <!-- Sciences Humaines&#45;&gt;Latin Sciences -->
    <g
       id="edge24"
       class="edge">
      <title
         id="title245">Sciences Humaines-&gt;Latin Sciences</title>
      <path
         d="m 372.709,-188.68 c -87.956,6.869 -224.404,23.954 -252.981,64.68 -9.191,13.097 -9.191,22.903 0,36 25.518,36.3666 50.49,25.0209 94,34 95.573,19.7235 377.022,29.5741 510.795,33.248"
         id="path247"
         inkscape:connector-curvature="0"
         style="fill:none;stroke:#000000" />
      <polygon
         points="734.672,-20.4774 724.581,-17.2493 724.77,-24.2467 724.77,-24.2467 "
         id="polygon249"
         style="fill:#000000;stroke:#000000" />
      <text
         x="162.728"
         y="-102.3"
         font-size="14.00"
         id="text251"
         style="font-size:14px;text-anchor:middle;font-family:'Times,serif'">PHYSIQUE +1</text>
    </g>
    <!-- Sciences Humaines&#45;&gt;Latin Sciences -->
    <g
       id="edge25"
       class="edge">
      <title
         id="title254">Sciences Humaines-&gt;Latin Sciences</title>
      <path
         d="m 381.563,-184.245 c -74.947,12.653 -180.678,40.872 -139.835,96.245 30.374,41.1808 59.741,24.3795 110,34 129.773,24.8413 284.075,32.1184 372.669,34.2083"
         id="path256"
         inkscape:connector-curvature="0"
         style="fill:none;stroke:#000000" />
      <polygon
         points="734.605,-19.567 724.531,-16.2879 724.685,-23.2863 724.685,-23.2863 "
         id="polygon258"
         style="fill:#000000;stroke:#000000" />
      <text
         x="292.728"
         y="-102.3"
         font-size="14.00"
         id="text260"
         style="font-size:14px;text-anchor:middle;font-family:'Times,serif'">GEOGRAPHIE -1</text>
    </g>
    <!-- Sciences Humaines&#45;&gt;Latin Sciences -->
    <g
       id="edge26"
       class="edge">
      <title
         id="title263">Sciences Humaines-&gt;Latin Sciences</title>
      <path
         d="m 403.704,-179.102 c -9.507,5.093 -18.354,11.945 -23.976,21.102 -16.28,26.512 -19.517,45.772 0,70 42.085,52.2461 236.792,65.0591 344.626,68.1158"
         id="path265"
         inkscape:connector-curvature="0"
         style="fill:none;stroke:#000000" />
      <polygon
         points="734.51,-19.6179 724.422,-16.3813 724.606,-23.3789 724.606,-23.3789 "
         id="polygon267"
         style="fill:#000000;stroke:#000000" />
      <text
         x="453.728"
         y="-102.3"
         font-size="14.00"
         id="text269"
         style="font-size:14px;text-anchor:middle;font-family:'Times,serif'">SCIENCES SOCIALES -4</text>
    </g>
    <!-- Sciences Humaines&#45;&gt;Latin Sciences -->
    <g
       id="edge27"
       class="edge">
      <title
         id="title272">Sciences Humaines-&gt;Latin Sciences</title>
      <path
         d="m 420.654,-176.915 c -14.007,10.042 -26.02,23.237 -15.926,34.915 36.127,41.8 73.626,-6.792 123,18 20.221,10.154 17.363,23.167 36,36 30.477,20.9864 40.874,22.3597 76,34 30.589,10.137 65.501,18.2468 94.624,24.0972"
         id="path274"
         inkscape:connector-curvature="0"
         style="fill:none;stroke:#000000" />
      <polygon
         points="744.395,-27.928 733.908,-26.4232 735.258,-33.2917 735.258,-33.2917 "
         id="polygon276"
         style="fill:#000000;stroke:#000000" />
      <text
         x="597.72803"
         y="-102.3"
         font-size="14.00"
         id="text278"
         style="font-size:14px;text-anchor:middle;font-family:'Times,serif'">CHIMIE +1</text>
    </g>
    <!-- Sciences Humaines&#45;&gt;Latin Sciences -->
    <g
       id="edge28"
       class="edge">
      <title
         id="title281">Sciences Humaines-&gt;Latin Sciences</title>
      <path
         d="m 439.222,-175.847 c -4.673,10.978 -7.727,24.806 0.506,33.847 28.853,31.685 151.46,4.109 192,18 53.436,18.309 107.1,57.1632 138.131,82.1283"
         id="path283"
         inkscape:connector-curvature="0"
         style="fill:none;stroke:#000000" />
      <polygon
         points="777.992,-35.2272 768.033,-38.8436 772.462,-44.2645 772.462,-44.2645 "
         id="polygon285"
         style="fill:#000000;stroke:#000000" />
      <text
         x="733.72803"
         y="-102.3"
         font-size="14.00"
         id="text287"
         style="font-size:14px;text-anchor:middle;font-family:'Times,serif'">LATIN +4</text>
    </g>
    <!-- Latin Grec&#45;&gt;Latin Sciences -->
    <g
       id="edge29"
       class="edge">
      <title
         id="title290">Latin Grec-&gt;Latin Sciences</title>
      <path
         d="m 959.496,-87.9527 c -3.001,11.2205 -8.599,25.37 -18.768,33.9527 -20.222,17.0663 -47.437,26.0689 -72.763,30.7325"
         id="path292"
         inkscape:connector-curvature="0"
         style="fill:none;stroke:#000000" />
      <polygon
         points="858,-21.631 867.3,-26.7054 868.435,-19.7979 868.435,-19.7979 "
         id="polygon294"
         style="fill:#000000;stroke:#000000" />
      <text
         x="995.72803"
         y="-58.299999"
         font-size="14.00"
         id="text296"
         style="font-size:14px;text-anchor:middle;font-family:'Times,serif'">PHYSIQUE +1</text>
    </g>
    <!-- Latin Grec&#45;&gt;Latin Sciences -->
    <g
       id="edge30"
       class="edge">
      <title
         id="title299">Latin Grec-&gt;Latin Sciences</title>
      <path
         d="m 915.59,-101.421 c -43.351,4.3786 -103.078,13.5329 -117.862,31.421 -5.455,6.6 -6.932,15.4896 -6.658,23.9977"
         id="path301"
         inkscape:connector-curvature="0"
         style="fill:none;stroke:#000000" />
      <polygon
         points="792.123,-35.9929 787.596,-45.5717 794.557,-46.3043 794.557,-46.3043 "
         id="polygon303"
         style="fill:#000000;stroke:#000000" />
      <text
         x="831.72803"
         y="-58.299999"
         font-size="14.00"
         id="text305"
         style="font-size:14px;text-anchor:middle;font-family:'Times,serif'">CHIMIE +1</text>
    </g>
    <!-- Latin Grec&#45;&gt;Latin Sciences -->
    <g
       id="edge31"
       class="edge">
      <title
         id="title308">Latin Grec-&gt;Latin Sciences</title>
      <path
         d="m 929.815,-92.6289 c -14.321,5.9824 -31.01,13.7869 -45.087,22.6289 -9.349,5.872 -9.794,9.907 -19,16 -8.569,5.6713 -18.178,11.0785 -27.441,15.8731"
         id="path310"
         inkscape:connector-curvature="0"
         style="fill:none;stroke:#000000" />
      <polygon
         points="829.191,-33.5495 836.55,-41.1713 839.697,-34.9185 839.697,-34.9185 "
         id="polygon312"
         style="fill:#000000;stroke:#000000" />
      <text
         x="910.72803"
         y="-58.299999"
         font-size="14.00"
         id="text314"
         style="font-size:14px;text-anchor:middle;font-family:'Times,serif'">GREC -2</text>
    </g>
  </g>
</svg>
